<svg id="visual" viewBox="0 0 960 300" width="960" height="300" xmlns="http://www.w3.org/2000/svg" xmlns:xlink="http://www.w3.org/1999/xlink" version="1.1"><rect x="0" y="0" width="960" height="300" fill="#140021"></rect><path d="M0 147L137 147L137 177L274 177L274 139L411 139L411 146L549 146L549 170L686 170L686 187L823 187L823 181L960 181L960 131L960 301L960 301L823 301L823 301L686 301L686 301L549 301L549 301L411 301L411 301L274 301L274 301L137 301L137 301L0 301Z" fill="#9900ff"></path><path d="M0 213L137 213L137 202L274 202L274 211L411 211L411 213L549 213L549 177L686 177L686 183L823 183L823 230L960 230L960 225L960 301L960 301L823 301L823 301L686 301L686 301L549 301L549 301L411 301L411 301L274 301L274 301L137 301L137 301L0 301Z" fill="#7700c6"></path><path d="M0 228L137 228L137 261L274 261L274 225L411 225L411 223L549 223L549 242L686 242L686 255L823 255L823 267L960 267L960 268L960 301L960 301L823 301L823 301L686 301L686 301L549 301L549 301L411 301L411 301L274 301L274 301L137 301L137 301L0 301Z" fill="#560090"></path></svg>